<svg width="10" height="10" viewBox="0 0 10 10" fill="none" xmlns="http://www.w3.org/2000/svg">
<path d="M10 7.90062C10 8.02484 9.97516 8.19048 9.92547 8.39752C9.87578 8.60455 9.82609 8.76605 9.7764 8.88199C9.67702 9.12215 9.38716 9.37474 8.90683 9.63975C8.45963 9.87992 8.0207 10 7.59006 10C7.45756 10 7.33333 9.99172 7.21739 9.97516C7.09317 9.95859 6.95652 9.92961 6.80745 9.8882C6.65839 9.83851 6.54658 9.80124 6.47205 9.7764C6.39752 9.75155 6.26501 9.706 6.07453 9.63975C5.88406 9.56522 5.76812 9.51967 5.72671 9.50311C5.26294 9.33747 4.84886 9.14286 4.48447 8.91925C3.8882 8.54658 3.26294 8.03313 2.6087 7.37888C1.96273 6.73292 1.45342 6.1118 1.08075 5.51553C0.848861 5.15114 0.650104 4.73706 0.484472 4.27329C0.47619 4.2236 0.434783 4.10766 0.360248 3.92547C0.293996 3.73499 0.244306 3.60248 0.21118 3.52795C0.186335 3.45342 0.153209 3.34161 0.111801 3.19255C0.0703934 3.04348 0.0414079 2.90683 0.0248447 2.78261C0.00828157 2.65838 0 2.53416 0 2.40994C0 1.97101 0.120083 1.53209 0.360248 1.09317C0.625259 0.612836 0.877847 0.322981 1.11801 0.223602C1.23395 0.173913 1.39545 0.124223 1.60248 0.074534C1.80952 0.0248445 1.97516 -1.86265e-07 2.09938 -1.86265e-07C2.16563 -1.86265e-07 2.21532 0.00828139 2.24845 0.0248445C2.33126 0.0496893 2.45549 0.227743 2.62112 0.559006C2.67909 0.650103 2.75362 0.778468 2.84472 0.944099C2.92754 1.10973 3.01035 1.2588 3.09317 1.3913C3.1677 1.53209 3.2381 1.66046 3.30435 1.7764C3.32091 1.79296 3.36232 1.85093 3.42857 1.95031C3.50311 2.04969 3.55694 2.13665 3.59006 2.21118C3.62319 2.27743 3.63975 2.34369 3.63975 2.40994C3.63975 2.50104 3.56936 2.61698 3.42857 2.75776C3.29607 2.90683 3.15114 3.03934 2.99379 3.15528C2.83644 3.27122 2.68737 3.39545 2.54658 3.52795C2.41408 3.66046 2.34783 3.76812 2.34783 3.85093C2.34783 3.90062 2.36025 3.95445 2.38509 4.01242C2.40994 4.07867 2.43064 4.12836 2.44721 4.16149C2.46377 4.19462 2.49689 4.25259 2.54658 4.3354C2.59627 4.40994 2.62112 4.45549 2.62112 4.47205C2.98551 5.11801 3.39959 5.67288 3.86335 6.13665C4.32712 6.60041 4.88199 7.01035 5.52795 7.36646C5.53623 7.37474 5.58178 7.40373 5.6646 7.45342C5.74741 7.50311 5.80538 7.53623 5.83851 7.55279C5.87164 7.56936 5.91718 7.59006 5.97516 7.61491C6.04141 7.63975 6.09524 7.65217 6.13665 7.65217C6.22774 7.65217 6.33954 7.58178 6.47205 7.44099C6.60455 7.30849 6.72878 7.16356 6.84472 7.00621C6.96066 6.84886 7.08903 6.69979 7.22981 6.55901C7.3706 6.4265 7.49068 6.36025 7.59006 6.36025C7.65631 6.36025 7.72257 6.37681 7.78882 6.40994C7.85507 6.44306 7.93789 6.49275 8.03727 6.55901C8.13665 6.63354 8.19876 6.67495 8.2236 6.68323C8.33954 6.75776 8.46377 6.8323 8.59627 6.90683C8.73706 6.98137 8.89027 7.06418 9.0559 7.15528C9.22153 7.24638 9.34576 7.31677 9.42857 7.36646C9.75983 7.53209 9.94203 7.66046 9.97516 7.75155C9.99172 7.78468 10 7.83437 10 7.90062Z" fill="#FAA419"/>
</svg>
