<svg width="50" height="50" viewBox="0 0 50 50" fill="none" xmlns="http://www.w3.org/2000/svg">
<rect x="1" y="1" width="48" height="48" rx="24" stroke="#EEC044" stroke-width="2"/>
<g clip-path="url(#clip0_372_2236)">
<path d="M36.5499 33.5557L31.6427 28.6484C31.366 28.3717 31.0201 28.2334 30.6051 28.2334C30.1901 28.2334 29.836 28.3717 29.5431 28.6484L28.2491 29.9424C28.0538 30.1377 27.9236 30.3696 27.8585 30.6382C27.7934 30.9067 27.8015 31.1631 27.8829 31.4072L27.3946 31.8955C27.2319 32.0583 26.6744 31.9606 25.7223 31.6025C24.7701 31.2445 23.6512 30.4225 22.3653 29.1367C21.0795 27.8509 20.2576 26.7319 19.8995 25.7798C19.5415 24.8276 19.4438 24.2702 19.6066 24.1074L20.0948 23.6191C20.1599 23.6354 20.2291 23.6517 20.3024 23.668C20.3756 23.6842 20.4448 23.6924 20.5099 23.6924C20.7052 23.6924 20.8924 23.6558 21.0714 23.5825C21.2504 23.5093 21.4132 23.3994 21.5597 23.2529L22.8536 21.959C23.1303 21.666 23.2687 21.312 23.2687 20.897C23.2687 20.4819 23.1303 20.1361 22.8536 19.8594L17.9464 14.9521C17.7999 14.8057 17.6372 14.6958 17.4581 14.6226C17.2791 14.5493 17.0838 14.5127 16.8722 14.5127C16.6769 14.5127 16.4897 14.5493 16.3107 14.6226C16.1316 14.6958 15.9689 14.8057 15.8224 14.9521L14.5528 16.2217C14.3575 16.417 14.2273 16.6489 14.1622 16.9175C14.0971 17.186 14.0971 17.4505 14.1622 17.7109C14.1622 17.7109 14.093 17.7801 13.9547 17.9185C13.8164 18.0568 13.7472 18.126 13.7472 18.126C13.0636 18.891 12.6608 19.8472 12.5387 20.9946C12.4166 22.1421 12.5834 23.4238 13.0392 24.8398C13.2508 25.5397 13.5275 26.2477 13.8693 26.9639C14.211 27.6637 14.6098 28.3636 15.0655 29.0635C15.5213 29.7633 16.0258 30.4551 16.5792 31.1387C17.1326 31.8223 17.7267 32.4896 18.3614 33.1406C19.0125 33.7754 19.6798 34.3695 20.3634 34.9229C21.047 35.4762 21.7387 35.9808 22.4386 36.4365C23.1385 36.8923 23.8383 37.291 24.5382 37.6328C25.2543 37.9746 25.9624 38.2513 26.6622 38.4629C27.2156 38.6419 27.7527 38.7762 28.2735 38.8657C28.7944 38.9552 29.2908 39 29.7628 39C30.5441 39 31.2521 38.882 31.8868 38.646C32.5216 38.41 33.0668 38.0641 33.5226 37.6084L33.7911 37.3398C33.8725 37.3561 33.9457 37.3683 34.0109 37.3765C34.076 37.3846 34.1411 37.3887 34.2062 37.3887C34.4178 37.3887 34.6131 37.3521 34.7921 37.2788C34.9711 37.2056 35.1339 37.0957 35.2804 36.9492L36.5499 35.6797C36.8429 35.3867 36.9894 35.0327 36.9894 34.6177C36.9894 34.2026 36.8429 33.8486 36.5499 33.5557ZM16.8722 16.002L21.7794 20.9092L20.5099 22.1787L15.6026 17.2715L16.8722 16.002ZM32.4728 36.5342C31.9357 37.0713 31.2032 37.3846 30.2755 37.4741C29.3478 37.5636 28.2898 37.4212 27.1017 37.0469C26.4669 36.8353 25.824 36.5749 25.173 36.2656C24.5219 35.9401 23.8709 35.5698 23.2198 35.1548C22.5688 34.7397 21.9259 34.2718 21.2911 33.751C20.6564 33.2301 20.0379 32.6686 19.4357 32.0664C18.8334 31.4642 18.2719 30.8457 17.7511 30.2109C17.2303 29.5762 16.7623 28.9333 16.3473 28.2822C15.9322 27.6312 15.562 26.9801 15.2364 26.3291C14.9272 25.6781 14.6668 25.0352 14.4552 24.4004C14.0808 23.2122 13.9384 22.1543 14.0279 21.2266C14.1175 20.2988 14.4308 19.5664 14.9679 19.0293L15.09 18.8828L18.8985 22.6914L18.5568 23.0332C18.1987 23.4076 18.0196 23.8714 18.0196 24.4248C18.0359 24.9782 18.1824 25.5804 18.4591 26.2314C18.7358 26.8825 19.1264 27.5579 19.631 28.2578C20.1355 28.9414 20.6889 29.5924 21.2911 30.2109C22.2189 31.1224 23.2076 31.8955 24.2574 32.5303C25.3072 33.165 26.2472 33.4824 27.0773 33.4824C27.3377 33.4824 27.5859 33.4377 27.8219 33.3481C28.0579 33.2586 28.2735 33.1243 28.4689 32.9453L28.8107 32.6035L32.6193 36.4121L32.4728 36.5342ZM34.2306 35.8994L29.3234 30.9922L30.5929 29.7227L35.5001 34.6299C35.5001 34.6299 35.2885 34.8415 34.8653 35.2646C34.4422 35.6878 34.2306 35.8994 34.2306 35.8994ZM31.4962 20.0059C30.7801 19.306 29.9622 18.7648 29.0426 18.3823C28.123 17.9998 27.1586 17.8086 26.1495 17.8086C25.9379 17.8086 25.7589 17.8818 25.6124 18.0283C25.4659 18.1748 25.3927 18.3457 25.3927 18.541C25.3927 18.7526 25.4659 18.9316 25.6124 19.0781C25.7589 19.2246 25.9379 19.2979 26.1495 19.2979C26.9633 19.2979 27.7364 19.4525 28.4689 19.7617C29.2013 20.071 29.8523 20.5104 30.422 21.0801C30.9916 21.6497 31.4311 22.3008 31.7403 23.0332C32.0496 23.7656 32.2042 24.5387 32.2042 25.3525C32.2042 25.5641 32.2775 25.7432 32.4239 25.8896C32.5704 26.0361 32.7495 26.1094 32.961 26.1094C33.1564 26.1094 33.3273 26.0361 33.4737 25.8896C33.6202 25.7432 33.6935 25.5641 33.6935 25.3525C33.6935 24.3434 33.5022 23.3791 33.1197 22.4595C32.7373 21.5399 32.1961 20.722 31.4962 20.0059ZM34.1818 17.3203C33.6446 16.7832 33.0668 16.3112 32.4484 15.9043C31.8299 15.4811 31.1788 15.1312 30.4952 14.8545C29.8116 14.5778 29.1036 14.3662 28.3712 14.2197C27.6551 14.0732 26.9145 14 26.1495 14C25.9379 14 25.7589 14.0732 25.6124 14.2197C25.4659 14.3662 25.3927 14.5452 25.3927 14.7568C25.3927 14.9521 25.4659 15.123 25.6124 15.2695C25.7589 15.416 25.9379 15.4893 26.1495 15.4893C27.4679 15.4893 28.7252 15.7375 29.9215 16.2339C31.1178 16.7303 32.1798 17.4505 33.1075 18.3945C34.0515 19.3223 34.7718 20.3843 35.2682 21.5806C35.7646 22.7769 36.0128 24.0342 36.0128 25.3525C36.0128 25.5641 36.086 25.7432 36.2325 25.8896C36.379 26.0361 36.5499 26.1094 36.7452 26.1094C36.9568 26.1094 37.1359 26.0361 37.2823 25.8896C37.4288 25.7432 37.5021 25.5641 37.5021 25.3525C37.5021 24.5876 37.4288 23.847 37.2823 23.1309C37.1359 22.3984 36.9243 21.6904 36.6476 21.0068C36.3709 20.3232 36.0209 19.6722 35.5978 19.0537C35.1909 18.4352 34.7189 17.8574 34.1818 17.3203ZM28.7862 22.7158C28.4282 22.3415 28.0253 22.0648 27.5777 21.8857C27.1302 21.7067 26.6541 21.6172 26.1495 21.6172C25.9379 21.6172 25.7589 21.6904 25.6124 21.8369C25.4659 21.9834 25.3927 22.1543 25.3927 22.3496C25.3927 22.5612 25.4659 22.7402 25.6124 22.8867C25.7589 23.0332 25.9379 23.1064 26.1495 23.1064C26.4588 23.1064 26.7477 23.1634 27.0162 23.2773C27.2848 23.3913 27.5249 23.554 27.7364 23.7656C27.948 23.9772 28.1108 24.2173 28.2247 24.4858C28.3387 24.7544 28.3956 25.0433 28.3956 25.3525C28.3956 25.5641 28.4689 25.7432 28.6153 25.8896C28.7618 26.0361 28.9409 26.1094 29.1525 26.1094C29.3478 26.1094 29.5187 26.0361 29.6651 25.8896C29.8116 25.7432 29.8849 25.5641 29.8849 25.3525C29.8849 24.848 29.7954 24.3719 29.6163 23.9243C29.4373 23.4767 29.1606 23.0739 28.7862 22.7158Z" fill="#EEC044"/>
</g>
<defs>
<clipPath id="clip0_372_2236">
<rect width="25" height="25" fill="white" transform="matrix(1 0 0 -1 12.5 39)"/>
</clipPath>
</defs>
</svg>
