<svg width="14" height="11" viewBox="0 0 14 11" fill="none" xmlns="http://www.w3.org/2000/svg">
<path d="M13.7402 3.47266C13.7858 3.42708 13.8405 3.42025 13.9043 3.45215C13.9681 3.48405 14 3.5319 14 3.5957V9.1875C14 9.55208 13.8724 9.86198 13.6172 10.1172C13.362 10.3724 13.0521 10.5 12.6875 10.5H1.3125C0.947917 10.5 0.638021 10.3724 0.382812 10.1172C0.127604 9.86198 0 9.55208 0 9.1875V3.5957C0 3.5319 0.0296224 3.48405 0.0888672 3.45215C0.148112 3.42025 0.205078 3.42708 0.259766 3.47266C0.569661 3.70964 1.0026 4.0332 1.55859 4.44336C2.11458 4.85352 3.08984 5.56445 4.48438 6.57617C4.76693 6.78581 5.13607 7.05697 5.5918 7.38965C6.04753 7.72233 6.51693 7.88411 7 7.875C7.49219 7.88411 7.96615 7.72005 8.42188 7.38281C8.8776 7.04557 9.24674 6.77669 9.5293 6.57617C10.9238 5.56445 11.8968 4.85352 12.4482 4.44336C12.9997 4.0332 13.4303 3.70964 13.7402 3.47266ZM7 7C6.68099 7.00911 6.32324 6.86328 5.92676 6.5625C5.53027 6.26172 5.2181 6.0293 4.99023 5.86523C3.17643 4.55273 2.03711 3.72103 1.57227 3.37012C1.10742 3.01921 0.665365 2.67969 0.246094 2.35156C0.173177 2.28776 0.113932 2.21029 0.0683594 2.11914C0.0227865 2.02799 0 1.93229 0 1.83203V1.3125C0 0.947917 0.127604 0.638021 0.382812 0.382812C0.638021 0.127604 0.947917 0 1.3125 0H12.6875C13.0521 0 13.362 0.127604 13.6172 0.382812C13.8724 0.638021 14 0.947917 14 1.3125V1.83203C14 1.93229 13.9772 2.02799 13.9316 2.11914C13.8861 2.21029 13.8268 2.28776 13.7539 2.35156C13.3346 2.67969 12.8926 3.01921 12.4277 3.37012C11.9629 3.72103 10.8236 4.55273 9.00977 5.86523C8.7819 6.0293 8.46973 6.26172 8.07324 6.5625C7.67676 6.86328 7.31901 7.00911 7 7Z" fill="white"/>
</svg>
