<svg width="40" height="40" viewBox="0 0 40 40" fill="none" xmlns="http://www.w3.org/2000/svg">
<rect width="40" height="40" rx="20" fill="#1F1E17"/>
<g clip-path="url(#clip0_372_2098)">
<path d="M26.5625 20C26.5625 20.8477 26.4167 21.6497 26.125 22.4062C25.8333 23.1628 25.43 23.8372 24.915 24.4297C24.4001 25.0221 23.7962 25.5189 23.1035 25.9199C22.4017 26.3118 21.6497 26.5716 20.8477 26.6992V21.9551H22.4199L22.7207 20H20.8477V18.7285C20.8477 18.4551 20.9251 18.209 21.0801 17.9902C21.235 17.7715 21.5221 17.6621 21.9414 17.6621H22.8027V15.9941C22.8027 15.9941 22.6432 15.9736 22.3242 15.9326C22.0052 15.8916 21.6589 15.8711 21.2852 15.8711C20.5104 15.8711 19.8883 16.0967 19.4189 16.5479C18.9495 16.999 18.7148 17.653 18.7148 18.5098V20H16.9922V21.9551H18.7148V26.6992C17.9128 26.5716 17.1608 26.3118 16.459 25.9199C15.7663 25.5189 15.1624 25.0221 14.6475 24.4297C14.1325 23.8372 13.7292 23.1628 13.4375 22.4062C13.1458 21.6497 13 20.8477 13 20C13 19.0612 13.1777 18.1816 13.5332 17.3613C13.8887 16.541 14.374 15.8232 14.9893 15.208C15.6045 14.5928 16.3223 14.1074 17.1426 13.752C17.9629 13.3965 18.8424 13.2188 19.7812 13.2188C20.7201 13.2188 21.5996 13.3965 22.4199 13.752C23.2402 14.1074 23.958 14.5928 24.5732 15.208C25.1885 15.8232 25.6738 16.541 26.0293 17.3613C26.3848 18.1816 26.5625 19.0612 26.5625 20Z" fill="white"/>
</g>
<defs>
<clipPath id="clip0_372_2098">
<rect width="14" height="14" fill="white" transform="matrix(1 0 0 -1 13 27)"/>
</clipPath>
</defs>
</svg>
