<svg width="215" height="44" viewBox="0 0 215 44" fill="none" xmlns="http://www.w3.org/2000/svg">
<path d="M10.345 34.8104C9.95281 34.4096 10.3982 33.7457 10.9108 33.818C14.0428 33.7853 17.1766 33.7698 20.3103 33.8059C19.9509 34.9772 19.4538 36.133 18.8501 37.1925C17.7975 37.8943 16.6915 38.5203 15.6424 39.2272C15.1625 39.628 14.65 39.1189 14.3025 38.7955C12.9644 37.4866 11.5678 36.2276 10.345 34.8104Z" fill="#F5F5F5"/>
<path d="M6.74392 11.4569C6.84368 11.0957 7.30982 11.1559 7.59533 11.1387C12.1635 11.1886 16.73 11.1026 21.2965 11.2333C20.2903 12.0469 19.2789 12.869 18.3106 13.7186C14.8071 13.7909 11.3001 13.7066 7.79828 13.7341C7.45085 13.7032 7.05868 13.7857 6.74737 13.5983C6.65277 12.8914 6.66997 12.1655 6.74565 11.4586L6.74392 11.4569ZM34.8944 5.18252C33.9054 6.48281 33.0626 7.88801 32.0857 9.19518C31.9894 9.32417 31.8931 9.45144 31.7933 9.577C31.6712 9.73351 31.5474 9.89175 31.4184 10.0431C31.3926 10.0775 31.3668 10.1119 31.341 10.1463L31.3547 10.1532C27.9836 14.5821 24.659 19.0488 21.2913 23.4794C23.209 23.4863 25.1268 23.4639 27.0411 23.4364C25.7374 26.3999 24.4732 29.384 23.154 32.344C23.0955 32.4833 23.0353 32.6209 22.9751 32.7585C21.6714 35.8131 20.237 38.8145 18.9659 41.8829C19.776 40.7649 20.4932 39.585 21.3308 38.4894C22.5383 36.9019 23.5238 35.1578 24.8069 33.6271C24.8309 33.5927 24.8585 33.5583 24.8826 33.5256C28.2967 28.9884 31.611 24.372 35.1317 19.9174C33.2415 19.9552 31.3513 19.8744 29.4628 19.9741C29.7139 19.1984 30.0992 18.4829 30.4156 17.7347C31.8896 14.3516 33.2707 10.9289 34.731 7.54058C35.1713 6.56021 35.6116 5.57811 36.0468 4.59601C36.1207 4.4309 36.1947 4.26407 36.2686 4.09551C36.604 3.33013 36.936 2.56132 37.2559 1.78906C36.4458 2.90531 35.7286 4.08691 34.891 5.18252H34.8944ZM6.74737 29.4631C7.00536 29.1965 7.43194 29.3152 7.76733 29.2687C11.209 29.3186 14.6557 29.2137 18.0991 29.3049C19.162 30.0135 20.0134 31.0265 21.0454 31.7971C16.613 31.8091 12.1824 31.7644 7.75184 31.7661C7.40612 31.7609 7.06386 31.7197 6.72159 31.6663C6.69063 30.9336 6.58913 30.1855 6.74909 29.4614L6.74737 29.4631ZM1.95561 11.168C2.78118 11.1525 3.61707 11.1886 4.39793 11.2901C4.68344 12.0623 4.65421 12.869 4.44781 13.6464C3.34876 13.7255 2.20843 13.7616 1.08874 13.7186C1.33642 12.8501 1.62709 12.0004 1.95561 11.1697V11.168ZM2.37354 15.8772C2.77601 15.7534 3.19395 15.6983 3.61534 15.7086C8.15258 15.7241 12.6898 15.6828 17.2271 15.7138C16.6956 16.4792 16.4909 17.4079 16.0368 18.2129C11.7645 18.1888 7.48694 18.1768 3.21458 18.1682C2.93939 18.1372 2.55756 18.2249 2.39932 17.9291C2.32365 17.248 2.38214 16.56 2.37526 15.8772H2.37354ZM0.0309474 20.1994C1.50323 20.1805 2.97553 20.1908 4.44609 20.2596C4.49081 21.056 4.7075 21.952 4.37899 22.6968C3.47086 22.8636 2.53696 22.7381 1.6185 22.769C1.08876 22.7484 0.559011 22.7656 0.0275461 22.769C0.0103466 22.3545 0 21.9383 0 21.5169C0 21.0749 0.010308 20.6346 0.0309474 20.1994ZM6.67687 20.3852C6.9297 20.1719 7.29947 20.282 7.60046 20.2459C10.2973 20.2768 12.996 20.2132 15.6928 20.2975C15.7599 21.1144 15.8029 21.9486 15.6739 22.7639C12.9117 22.7983 10.1477 22.7621 7.38719 22.7604C7.14295 22.7088 6.67344 22.8464 6.65108 22.4732C6.584 21.7801 6.56679 21.0697 6.67687 20.3852ZM2.34776 24.8175C2.76571 24.7659 3.18362 24.7435 3.60329 24.7435C7.79997 24.7711 11.995 24.7367 16.1899 24.7951C16.3826 25.6173 16.6956 26.4033 17.0585 27.1635C16.4169 27.2564 15.7668 27.2443 15.1218 27.2409C11.2141 27.2461 7.30636 27.2392 3.39863 27.234C3.05808 27.2082 2.66938 27.2667 2.38043 27.0431C2.22563 26.3104 2.31852 25.5554 2.34948 24.8158L2.34776 24.8175ZM1.08013 29.2859C2.2239 29.2773 3.3711 29.2722 4.51315 29.3375C4.50799 30.0788 4.5682 30.8236 4.48393 31.5597C4.29129 31.8607 3.89055 31.7695 3.58956 31.8022L1.92462 31.7885C1.60643 30.9715 1.32265 30.1373 1.08013 29.2842V29.2859Z" fill="#FAA419"/>
<path d="M39.8198 4.08006C40.3134 3.68447 40.8122 4.15747 41.1785 4.4877C42.5683 5.80862 44.0784 7.01775 45.3219 8.48659C45.5816 8.7377 45.5489 9.13845 45.303 9.38612C44.2538 10.5987 43.1789 11.8078 42.3584 13.1924C43.2133 14.4256 43.7224 15.8411 44.3072 17.2136C45.7898 17.1981 47.2758 17.3392 48.7292 17.6281C49.2847 17.7193 49.9056 18.1475 49.8316 18.7805C49.8265 20.6449 49.8454 22.5076 49.8127 24.3721C49.8643 24.9964 49.2813 25.5038 48.6896 25.5468C47.2328 25.7102 45.7622 25.6964 44.3037 25.8409C43.8892 27.3803 43.3474 28.8955 42.4909 30.2457C43.3749 31.5133 44.4808 32.6158 45.3099 33.923C45.5438 34.2429 45.3993 34.6591 45.1379 34.9136C43.7481 36.3756 42.4204 37.8995 40.9498 39.2789C40.611 39.5885 40.1552 39.3374 39.8473 39.1224C38.6038 38.2521 37.3964 37.3267 36.1374 36.4822C34.9145 37.0859 33.6176 37.509 32.3346 37.958C32.1798 39.1808 32.0421 40.4055 31.9304 41.6318C31.9028 42.3301 31.3542 43.0284 30.6129 43.006C28.8155 43.0611 27.013 43.0077 25.214 43.0318C24.5019 43.0834 23.8483 42.4556 23.795 41.7608C23.6935 40.7804 23.7709 39.7897 23.5938 38.8179C24.6945 37.1014 25.8916 35.4382 27.2125 33.8834C28.8413 33.935 30.4977 33.8232 32.0542 33.3055C37.1332 31.6217 40.7795 26.3362 40.408 20.9734C40.1638 17.2979 38.0396 13.9148 35.0813 11.7855C35.7315 9.93651 36.5725 8.15807 37.3482 6.359C37.7644 5.24963 38.9134 4.71645 39.8267 4.07835L39.8198 4.08006Z" fill="#F5F5F5"/>
<path d="M32.2732 5.47874C32.3041 4.13374 32.0479 2.79906 31.9567 1.45749C31.9533 0.680075 31.2739 -0.049176 30.4758 0.00414248C28.6802 -0.00445728 26.8794 0.000703836 25.0838 0.0161834C24.4268 0.00242379 23.8351 0.613002 23.8127 1.25798C23.7319 2.53935 23.756 3.82587 23.7319 5.10896C22.4247 5.47187 21.1193 5.89325 19.9308 6.56403C18.4775 5.84853 17.2373 4.78733 15.8528 3.95659C15.3626 3.61948 14.9 4.1303 14.5525 4.42958C13.3795 5.56818 12.2443 6.74636 11.0386 7.85228C10.7342 8.15156 10.2974 8.5179 10.5089 8.99777C10.8237 9.19384 11.2227 9.10268 11.577 9.13708C17.5418 9.16976 23.5031 9.07345 29.4679 9.08549C30.3709 7.85916 31.4786 6.77215 32.2766 5.48046L32.2732 5.47874Z" fill="#F5F5F5"/>
<path d="M111.595 21.3455C111.595 22.3792 111.387 23.3613 110.977 24.266C110.556 25.1913 109.976 26.0134 109.254 26.7083C108.53 27.4032 107.665 27.9622 106.683 28.3663C105.709 28.7671 104.648 28.97 103.532 28.97C102.416 28.97 101.356 28.7671 100.381 28.3663C99.3953 27.9604 98.5233 27.3997 97.7854 26.7014C97.0527 26.0066 96.4697 25.1879 96.0534 24.266C95.6424 23.3613 95.436 22.3792 95.436 21.3455C95.436 20.2912 95.6441 19.297 96.0551 18.3923C96.4714 17.4704 97.0545 16.6517 97.7871 15.9569C98.5233 15.2569 99.397 14.6979 100.383 14.292C101.356 13.8912 102.416 13.6883 103.533 13.6883C104.651 13.6883 105.711 13.8912 106.684 14.292C107.665 14.6961 108.53 15.2534 109.256 15.95C109.978 16.6449 110.558 17.467 110.979 18.3923C111.39 19.297 111.597 20.2912 111.597 21.3455H111.595ZM116.363 16.0773C115.628 14.4605 114.619 13.0278 113.36 11.8169C112.102 10.6095 110.616 9.64637 108.944 8.95323C107.261 8.25493 105.439 7.90234 103.532 7.90234C101.626 7.90234 99.7995 8.25493 98.1071 8.95323C96.4215 9.64809 94.9286 10.6113 93.6713 11.8187C92.4106 13.0295 91.401 14.4622 90.6683 16.079C89.9235 17.7181 89.5469 19.4914 89.5469 21.3472C89.5469 23.1841 89.9235 24.9454 90.6666 26.581C91.3993 28.1978 92.4106 29.6322 93.6713 30.8431C94.9286 32.0522 96.4215 33.0154 98.1071 33.7085C99.7995 34.4068 101.624 34.7594 103.533 34.7594C105.444 34.7594 107.264 34.4068 108.948 33.7085C110.62 33.0154 112.104 32.0522 113.363 30.8448C114.622 29.6339 115.633 28.2012 116.366 26.5845C117.109 24.9454 117.487 23.1841 117.487 21.3489C117.487 19.4914 117.111 17.7198 116.366 16.0807L116.363 16.0773Z" fill="#F5F5F5"/>
<path d="M75.0988 8.31641C73.2722 8.41616 71.5351 8.83755 69.9338 9.56853C68.3428 10.2961 66.9325 11.2696 65.744 12.4581C64.5469 13.6551 63.594 15.0552 62.9095 16.6221C62.2181 18.2061 61.8672 19.9244 61.8672 21.7252C61.8672 23.5053 62.2181 25.2115 62.9095 26.7956C63.594 28.3624 64.5469 29.7642 65.744 30.9596C66.9342 32.1498 68.3446 33.1233 69.9338 33.8491C71.5351 34.5818 73.2722 35.0014 75.0988 35.1012L88.0535 35.1029V32.1893C88.0535 31.3638 87.7353 30.6207 87.1333 30.0411C86.5468 29.4753 85.7986 29.1777 84.973 29.1777H75.8126C74.7204 29.1777 73.6816 28.9782 72.7304 28.586C71.7673 28.1887 70.9124 27.6418 70.1918 26.9572C69.4763 26.2796 68.907 25.4781 68.4976 24.5768C68.0917 23.6825 67.8939 22.7502 67.8939 21.7269C67.8939 20.6829 68.0917 19.7386 68.4976 18.8425C68.907 17.9413 69.4763 17.1415 70.1918 16.4621C70.9142 15.7775 71.7673 15.2289 72.7304 14.8333C73.6833 14.4411 74.7204 14.2434 75.8126 14.2434H84.973C85.7986 14.2434 86.5451 13.9441 87.1333 13.3782C87.7353 12.7986 88.0517 12.0556 88.0517 11.23V8.31641H75.1762L75.0954 8.31812L75.0988 8.31641Z" fill="#F5F5F5"/>
<path d="M143.347 32.1878C143.347 31.2659 142.942 30.4713 142.208 29.9484L142.205 29.9467C141.606 29.5219 140.952 29.3069 140.264 29.3069H127.21C128.834 27.7108 130.419 26.1645 131.947 24.6888C134.276 22.4374 136.491 20.327 138.532 18.4196L141.264 15.8672H135.385C134.365 15.8672 133.446 16.1149 132.638 16.6068L132.513 16.5087L131.567 17.4341C131.532 17.4685 131.426 17.5699 131.245 17.7402C131.033 17.9397 130.691 18.2665 130.204 18.7309C129.726 19.185 129.05 19.8248 128.175 20.6452C127.291 21.4708 126.187 22.5165 124.857 23.779C123.533 25.0363 121.9 26.5808 119.931 28.4366C119.419 28.9509 119.02 29.5425 118.744 30.1961C118.469 30.8548 118.328 31.5583 118.328 32.2876V35.1014H143.347V32.1878Z" fill="#F5F5F5"/>
<path d="M121.415 14.0095H143.353V11.0958C143.353 10.1413 142.931 9.34838 142.166 8.86335C141.593 8.50044 140.967 8.31641 140.307 8.31641H118.336V10.9961C118.336 11.8234 118.654 12.5664 119.254 13.1443C119.841 13.7102 120.589 14.0095 121.416 14.0095H121.415Z" fill="#F5F5F5"/>
<path d="M164.409 32.1264V22.7836L179.256 8.25H172.663C171.546 8.25 170.527 8.67483 169.721 9.47977L157.258 21.6863L158.45 22.8042V35.0417H161.53C162.301 35.0417 163.002 34.7476 163.56 34.1903C164.117 33.6348 164.411 32.921 164.411 32.1281L164.409 32.1264Z" fill="#F5F5F5"/>
<path d="M160.081 16.2048L159.022 15.1608C157.548 13.7091 156.419 12.6032 155.637 11.843C154.847 11.0776 154.275 10.5255 153.913 10.1867C153.523 9.82032 153.291 9.60876 153.208 9.53996C153.187 9.52276 153.167 9.50729 153.187 9.52964C152.792 9.09794 152.317 8.77115 151.781 8.55616C151.273 8.3532 150.74 8.25 150.196 8.25H143.578L153.733 18.0899C154.321 18.6798 155.088 18.9911 155.946 18.9911C156.787 18.9911 157.551 18.6918 158.156 18.126L160.079 16.2031L160.081 16.2048Z" fill="#F5F5F5"/>
<path d="M211.182 8.31641C209.977 8.31641 208.981 8.82723 208.374 9.75428L197.505 27.9479L186.635 9.80416L186.606 9.75601C186.001 8.82895 185.005 8.31813 183.799 8.31813H180.617L180.653 34.9739H183.297C184.16 34.9739 184.924 34.7263 185.562 34.2361C186.303 33.6702 186.711 32.8618 186.711 31.9606V21.4499L193.995 33.3469C194.358 33.9781 194.896 34.4511 195.598 34.7538C196.195 35.0118 196.831 35.1425 197.488 35.1425C198.147 35.1425 198.782 35.0118 199.377 34.7538C200.08 34.4511 200.62 33.9781 200.983 33.3469L208.267 21.4499V31.9606C208.267 32.8636 208.675 33.6719 209.413 34.2361C210.054 34.7263 210.816 34.9739 211.681 34.9739H214.325L214.363 8.31813H211.181L211.182 8.31641Z" fill="#F5F5F5"/>
</svg>
