<svg width="40" height="40" viewBox="0 0 40 40" fill="none" xmlns="http://www.w3.org/2000/svg">
<rect width="40" height="40" rx="20" fill="#1F1E17"/>
<g clip-path="url(#clip0_372_2095)">
<path d="M25.5645 17.1426C25.5645 17.2064 25.5645 17.2702 25.5645 17.334C25.5645 17.3978 25.5645 17.4616 25.5645 17.5254C25.5645 18.4733 25.3867 19.4303 25.0312 20.3965C24.6758 21.3626 24.154 22.2376 23.4658 23.0215C22.7777 23.8053 21.9232 24.4479 20.9023 24.9492C19.8906 25.4414 18.724 25.6875 17.4023 25.6875C17.0013 25.6875 16.6048 25.6602 16.2129 25.6055C15.821 25.5417 15.4404 25.4551 15.0713 25.3457C14.7021 25.2363 14.3444 25.1042 13.998 24.9492C13.6517 24.7852 13.319 24.6029 13 24.4023C13.1185 24.4115 13.2347 24.4183 13.3486 24.4229C13.4626 24.4274 13.5788 24.4297 13.6973 24.4297C14.3626 24.4297 14.9984 24.3226 15.6045 24.1084C16.2106 23.8942 16.7598 23.5957 17.252 23.2129C16.623 23.1947 16.0648 22.9987 15.5771 22.625C15.0895 22.2513 14.7546 21.7819 14.5723 21.2168C14.6634 21.2259 14.7523 21.235 14.8389 21.2441C14.9255 21.2533 15.0189 21.2578 15.1191 21.2578C15.2467 21.2578 15.3743 21.251 15.502 21.2373C15.6296 21.2236 15.7526 21.1986 15.8711 21.1621C15.2148 21.0254 14.668 20.6973 14.2305 20.1777C13.793 19.6582 13.5742 19.0475 13.5742 18.3457V18.3184C13.7656 18.4186 13.9707 18.5007 14.1895 18.5645C14.4082 18.6283 14.6315 18.6647 14.8594 18.6738C14.4766 18.4186 14.1689 18.0814 13.9365 17.6621C13.7041 17.2428 13.5879 16.7826 13.5879 16.2812C13.5879 16.0169 13.6221 15.764 13.6904 15.5225C13.7588 15.2809 13.8522 15.0553 13.9707 14.8457C14.3262 15.2741 14.7227 15.666 15.1602 16.0215C15.5977 16.377 16.0671 16.6846 16.5684 16.9443C17.0697 17.2041 17.6029 17.4115 18.168 17.5664C18.724 17.7214 19.2982 17.8125 19.8906 17.8398C19.8724 17.7305 19.8564 17.6211 19.8428 17.5117C19.8291 17.4023 19.8223 17.293 19.8223 17.1836C19.8223 16.7917 19.8952 16.418 20.041 16.0625C20.196 15.7161 20.4033 15.4131 20.6631 15.1533C20.9229 14.8936 21.2259 14.6908 21.5723 14.5449C21.9186 14.39 22.2923 14.3125 22.6934 14.3125C23.1035 14.3125 23.4886 14.3945 23.8486 14.5586C24.2087 14.7227 24.5208 14.9414 24.7852 15.2148C25.1133 15.1602 25.43 15.0736 25.7354 14.9551C26.0407 14.8366 26.3301 14.6953 26.6035 14.5312C26.5033 14.8594 26.3438 15.1602 26.125 15.4336C25.9062 15.707 25.6465 15.9303 25.3457 16.1035C25.6374 16.0762 25.9222 16.0238 26.2002 15.9463C26.4782 15.8688 26.7448 15.7754 27 15.666C26.8086 15.9486 26.5898 16.2152 26.3438 16.4658C26.0977 16.7165 25.8379 16.9421 25.5645 17.1426Z" fill="white"/>
</g>
<defs>
<clipPath id="clip0_372_2095">
<rect width="14" height="14" fill="white" transform="matrix(1 0 0 -1 13 27)"/>
</clipPath>
</defs>
</svg>
