<svg width="82" height="82" viewBox="0 0 82 82" fill="none" xmlns="http://www.w3.org/2000/svg">
<rect width="82" height="82" rx="10" fill="#C5CE38"/>
<g clip-path="url(#clip0_372_3199)">
<path d="M49.1621 42.3945C47.2754 42.3945 45.6553 43.0645 44.3018 44.4043C42.9482 45.7441 42.2715 47.3574 42.2715 49.2441C42.2715 51.1582 42.9482 52.7852 44.3018 54.125C45.6553 55.4648 47.2754 56.1348 49.1621 56.1348C51.0488 56.1348 52.6621 55.4648 54.002 54.125C55.3418 52.7852 56.0117 51.1582 56.0117 49.2441C56.0117 47.3574 55.3418 45.7441 54.002 44.4043C52.6621 43.0645 51.0488 42.3945 49.1621 42.3945ZM49.1621 54.9043C47.6035 54.9043 46.2773 54.3506 45.1836 53.2432C44.0898 52.1357 43.543 50.8027 43.543 49.2441C43.543 47.7129 44.0898 46.3936 45.1836 45.2861C46.2773 44.1787 47.6035 43.625 49.1621 43.625C50.7207 43.625 52.0469 44.1787 53.1406 45.2861C54.2344 46.3936 54.7812 47.7129 54.7812 49.2441C54.7812 50.8027 54.2344 52.1357 53.1406 53.2432C52.0469 54.3506 50.7207 54.9043 49.1621 54.9043ZM49.1621 46.291C48.3418 46.291 47.6377 46.5781 47.0498 47.1523C46.4619 47.7266 46.168 48.4238 46.168 49.2441C46.168 50.0645 46.4619 50.7686 47.0498 51.3564C47.6377 51.9443 48.3418 52.2383 49.1621 52.2383C49.9824 52.2383 50.6797 51.9443 51.2539 51.3564C51.8281 50.7686 52.1152 50.0645 52.1152 49.2441C52.1152 48.4238 51.8281 47.7266 51.2539 47.1523C50.6797 46.5781 49.9824 46.291 49.1621 46.291ZM49.1621 51.0078C48.6699 51.0078 48.2598 50.8369 47.9316 50.4951C47.6035 50.1533 47.4395 49.7363 47.4395 49.2441C47.4395 48.7793 47.6035 48.376 47.9316 48.0342C48.2598 47.6924 48.6699 47.5215 49.1621 47.5215C49.627 47.5215 50.0303 47.6924 50.3721 48.0342C50.7139 48.376 50.8848 48.7793 50.8848 49.2441C50.8848 49.7363 50.7139 50.1533 50.3721 50.4951C50.0303 50.8369 49.627 51.0078 49.1621 51.0078ZM55.9297 38.375V25.373C55.9297 25.1816 55.875 25.0244 55.7656 24.9014C55.6562 24.7783 55.5059 24.7168 55.3145 24.7168H53.0176C52.8535 24.7168 52.71 24.7783 52.5869 24.9014C52.4639 25.0244 52.4023 25.1816 52.4023 25.373C52.4023 25.5371 52.4639 25.6807 52.5869 25.8037C52.71 25.9268 52.8535 25.9883 53.0176 25.9883H54.6992V27.1367H34.6836V25.9883H50.1055C50.2695 25.9883 50.4131 25.9268 50.5361 25.8037C50.6592 25.6807 50.7207 25.5371 50.7207 25.373C50.7207 25.1816 50.6592 25.0244 50.5361 24.9014C50.4131 24.7783 50.2695 24.7168 50.1055 24.7168H34.0684C33.9043 24.7168 33.7607 24.7783 33.6377 24.9014C33.5146 25.0244 33.4531 25.1816 33.4531 25.373V27.752C33.4531 27.916 33.5146 28.0596 33.6377 28.1826C33.7607 28.3057 33.9043 28.3672 34.0684 28.3672H37.1855L34.6836 37.6367H30.459V30.6641C30.459 30.1719 30.2813 29.748 29.9258 29.3926C29.5703 29.0371 29.1465 28.8594 28.6543 28.8594H28.4082V24.7988C28.4082 24.3887 28.5518 24.04 28.8389 23.7529C29.126 23.4658 29.4746 23.3223 29.8848 23.3223H30.5C30.6914 23.3223 30.8418 23.2676 30.9512 23.1582C31.0605 23.0488 31.1152 22.8984 31.1152 22.707C31.1152 22.543 31.0605 22.3994 30.9512 22.2764C30.8418 22.1533 30.6914 22.0918 30.5 22.0918H29.8848C29.1191 22.0918 28.4766 22.3584 27.957 22.8916C27.4375 23.4248 27.1777 24.0605 27.1777 24.7988V28.8594H27.0547C26.5625 28.8594 26.1455 29.0371 25.8037 29.3926C25.4619 29.748 25.291 30.1719 25.291 30.6641V37.6367H23.4453C22.4883 37.6367 21.6748 37.9717 21.0049 38.6416C20.335 39.3115 20 40.125 20 41.082V52.8125C20 54.7812 20.6904 56.4561 22.0713 57.8369C23.4521 59.2178 25.127 59.9082 27.0957 59.9082C28.9551 59.9082 30.5547 59.2793 31.8945 58.0215C33.2344 56.7637 33.9863 55.2324 34.1504 53.4277H39.3594C40.1797 55.3418 41.4717 56.9004 43.2354 58.1035C44.999 59.3066 46.9746 59.9082 49.1621 59.9082C50.584 59.9082 51.9102 59.6484 53.1406 59.1289C54.3984 58.6094 55.5059 57.8984 56.4629 56.9961C57.4199 56.0938 58.1992 55.0273 58.8008 53.7969C59.375 52.5937 59.7031 51.2949 59.7852 49.9004H61.3848C61.5488 49.9004 61.6924 49.8389 61.8154 49.7158C61.9385 49.5928 62 49.4355 62 49.2441C62 48.0957 61.8496 46.9883 61.5488 45.9219C61.2754 44.8828 60.8721 43.8916 60.3389 42.9482C59.8057 42.0049 59.1699 41.1504 58.4316 40.3848C57.6934 39.6191 56.8594 38.9492 55.9297 38.375ZM26.5215 30.6641C26.5215 30.5 26.5762 30.3633 26.6855 30.2539C26.7949 30.1445 26.918 30.0898 27.0547 30.0898H28.6543C28.8184 30.0898 28.9482 30.1445 29.0439 30.2539C29.1396 30.3633 29.1875 30.5 29.1875 30.6641V37.6367H26.5215V30.6641ZM27.0957 58.6777C25.4824 58.6777 24.1016 58.1035 22.9531 56.9551C21.8047 55.8066 21.2305 54.4258 21.2305 52.8125C21.2578 51.1992 21.8389 49.8252 22.9736 48.6904C24.1084 47.5557 25.4824 46.9883 27.0957 46.9883C28.709 46.9883 30.083 47.5557 31.2178 48.6904C32.3525 49.8252 32.9199 51.1992 32.9199 52.8125C32.9199 54.4258 32.3525 55.8066 31.2178 56.9551C30.083 58.1035 28.709 58.6777 27.0957 58.6777ZM36.3242 52.1973H35.791V47.0703C35.791 46.8789 35.7295 46.7217 35.6064 46.5986C35.4834 46.4756 35.3398 46.4141 35.1758 46.4141C34.9844 46.4141 34.8271 46.4756 34.7041 46.5986C34.5811 46.7217 34.5195 46.8789 34.5195 47.0703V52.1973H34.1504C33.9863 50.3926 33.2344 48.8613 31.8945 47.6035C30.5547 46.3457 28.9551 45.7168 27.0957 45.7168C25.8926 45.7168 24.7783 45.9971 23.7529 46.5576C22.7275 47.1182 21.8867 47.8633 21.2305 48.793V41.082C21.2305 40.4805 21.4492 39.9678 21.8867 39.5439C22.3242 39.1201 22.8437 38.9082 23.4453 38.9082H34.5195V44.1582C34.5195 44.3223 34.5811 44.4658 34.7041 44.5889C34.8271 44.7119 34.9844 44.7734 35.1758 44.7734C35.3398 44.7734 35.4834 44.7119 35.6064 44.5889C35.7295 44.4658 35.791 44.3223 35.791 44.1582V38.375L38.498 28.3672H54.6992V37.6777C54.5078 37.5957 54.3232 37.5137 54.1455 37.4316C53.9678 37.3496 53.7832 37.2813 53.5918 37.2266V30.1309C53.5918 29.9395 53.5303 29.7822 53.4072 29.6592C53.2842 29.5361 53.1406 29.4746 52.9766 29.4746H39.8105C39.6738 29.4746 39.5508 29.5225 39.4414 29.6182C39.332 29.7139 39.2637 29.8301 39.2363 29.9668L36.9395 38.416C36.8848 38.5527 36.8779 38.6826 36.9189 38.8057C36.96 38.9287 37.0352 39.0312 37.1445 39.1133C37.1992 39.1406 37.2607 39.1611 37.3291 39.1748C37.3975 39.1885 37.4727 39.1953 37.5547 39.1953L41.123 39.2363C39.6465 40.4121 38.4775 41.875 37.6162 43.625C36.7549 45.375 36.3242 47.248 36.3242 49.2441V52.1973ZM52.3203 30.7461V36.8164C51.8281 36.6797 51.3154 36.5771 50.7822 36.5088C50.249 36.4404 49.709 36.4062 49.1621 36.4062C48.041 36.4062 46.9541 36.5498 45.9014 36.8369C44.8486 37.124 43.8711 37.5137 42.9688 38.0059L38.334 37.9648L40.3027 30.7461H52.3203ZM49.1621 58.6777C47.8496 58.6777 46.6328 58.4316 45.5117 57.9395C44.3633 57.4199 43.3652 56.7363 42.5176 55.8887C41.6699 55.041 41 54.0566 40.5078 52.9355C40.0156 51.7871 39.7695 50.5566 39.7695 49.2441C39.7695 47.959 40.0156 46.7422 40.5078 45.5938C41 44.4727 41.6699 43.4814 42.5176 42.6201C43.3652 41.7588 44.3633 41.082 45.5117 40.5898C46.6328 40.0977 47.8496 39.8516 49.1621 39.8516C50.4473 39.8516 51.6641 40.0977 52.8125 40.5898C53.9609 41.082 54.959 41.7588 55.8066 42.6201C56.6543 43.4814 57.3242 44.4727 57.8164 45.5938C58.3086 46.7422 58.5547 47.959 58.5547 49.2441C58.5547 50.5566 58.3086 51.7871 57.8164 52.9355C57.3242 54.0566 56.6543 55.041 55.8066 55.8887C54.959 56.7363 53.9609 57.4199 52.8125 57.9395C51.6641 58.4316 50.4473 58.6777 49.1621 58.6777ZM59.7852 48.6289C59.7031 47.2344 59.375 45.9355 58.8008 44.7324C58.1992 43.502 57.4199 42.4355 56.4629 41.5332C55.5059 40.6309 54.3984 39.9199 53.1406 39.4004C51.9102 38.8809 50.584 38.6211 49.1621 38.6211C47.6855 38.6211 46.3047 38.8945 45.0195 39.4414C43.7344 40.0156 42.6064 40.7812 41.6357 41.7383C40.665 42.6953 39.9062 43.8301 39.3594 45.1426C38.7852 46.4277 38.498 47.7949 38.498 49.2441C38.498 49.7637 38.5322 50.2695 38.6006 50.7617C38.6689 51.2539 38.7715 51.7324 38.9082 52.1973H37.5547V49.2441C37.5547 47.6582 37.8555 46.1543 38.457 44.7324C39.0859 43.3379 39.9199 42.1143 40.959 41.0615C41.998 40.0088 43.2285 39.1816 44.6504 38.5801C46.0449 37.9785 47.5488 37.6777 49.1621 37.6777C50.6934 37.6777 52.1426 37.9648 53.5098 38.5391C54.9043 39.0859 56.1211 39.8584 57.1602 40.8564C58.1992 41.8545 59.0332 43.0234 59.6621 44.3633C60.291 45.6758 60.6465 47.0977 60.7285 48.6289H59.7852ZM27.0957 49.0801C26.0566 49.0801 25.168 49.4424 24.4297 50.167C23.6914 50.8916 23.3223 51.7734 23.3223 52.8125C23.3223 53.8516 23.6914 54.7402 24.4297 55.4785C25.168 56.2168 26.0566 56.5859 27.0957 56.5859C28.1348 56.5859 29.0166 56.2168 29.7412 55.4785C30.4658 54.7402 30.8281 53.8516 30.8281 52.8125C30.8281 51.7734 30.4658 50.8916 29.7412 50.167C29.0166 49.4424 28.1348 49.0801 27.0957 49.0801ZM27.0957 55.3145C26.4121 55.3145 25.8242 55.0684 25.332 54.5762C24.8398 54.084 24.5938 53.4961 24.5938 52.8125C24.5938 52.1289 24.8398 51.541 25.332 51.0488C25.8242 50.5566 26.4121 50.3105 27.0957 50.3105C27.7793 50.3105 28.3672 50.5566 28.8594 51.0488C29.3516 51.541 29.5977 52.1289 29.5977 52.8125C29.5977 53.4961 29.3516 54.084 28.8594 54.5762C28.3672 55.0684 27.7793 55.3145 27.0957 55.3145ZM22.8711 40.0977C22.707 40.0977 22.5635 40.1592 22.4404 40.2822C22.3174 40.4053 22.2559 40.5625 22.2559 40.7539V45.0605C22.2559 45.2246 22.3174 45.3682 22.4404 45.4912C22.5635 45.6143 22.707 45.6758 22.8711 45.6758C23.6367 45.6758 24.293 45.4023 24.8398 44.8555C25.3867 44.3086 25.6602 43.6523 25.6602 42.8867C25.6602 42.1211 25.3867 41.4648 24.8398 40.918C24.293 40.3711 23.6367 40.0977 22.8711 40.0977ZM23.4863 44.3223V41.4922C23.7598 41.6016 23.9854 41.7861 24.1631 42.0459C24.3408 42.3057 24.4297 42.5859 24.4297 42.8867C24.4297 43.2148 24.3408 43.502 24.1631 43.748C23.9854 43.9941 23.7598 44.1855 23.4863 44.3223ZM32.0176 39.7285H29.1875C29.0234 39.7285 28.8799 39.79 28.7568 39.9131C28.6338 40.0361 28.5723 40.1797 28.5723 40.3438C28.5723 40.5078 28.6338 40.6514 28.7568 40.7744C28.8799 40.8975 29.0234 40.959 29.1875 40.959H32.0176C32.209 40.959 32.3662 40.8975 32.4893 40.7744C32.6123 40.6514 32.6738 40.5078 32.6738 40.3438C32.6738 40.1797 32.6123 40.0361 32.4893 39.9131C32.3662 39.79 32.209 39.7285 32.0176 39.7285ZM32.0176 41.6973H29.1875C29.0234 41.6973 28.8799 41.7588 28.7568 41.8818C28.6338 42.0049 28.5723 42.1484 28.5723 42.3125C28.5723 42.4766 28.6338 42.6201 28.7568 42.7432C28.8799 42.8662 29.0234 42.9277 29.1875 42.9277H32.0176C32.209 42.9277 32.3662 42.8662 32.4893 42.7432C32.6123 42.6201 32.6738 42.4766 32.6738 42.3125C32.6738 42.1484 32.6123 42.0049 32.4893 41.8818C32.3662 41.7588 32.209 41.6973 32.0176 41.6973ZM32.0176 43.666H29.1875C29.0234 43.666 28.8799 43.7275 28.7568 43.8506C28.6338 43.9736 28.5723 44.1172 28.5723 44.2812C28.5723 44.4453 28.6338 44.5889 28.7568 44.7119C28.8799 44.835 29.0234 44.8965 29.1875 44.8965H32.0176C32.209 44.8965 32.3662 44.835 32.4893 44.7119C32.6123 44.5889 32.6738 44.4453 32.6738 44.2812C32.6738 44.1172 32.6123 43.9736 32.4893 43.8506C32.3662 43.7275 32.209 43.666 32.0176 43.666Z" fill="white"/>
</g>
<defs>
<clipPath id="clip0_372_3199">
<rect width="42" height="42" fill="white" transform="matrix(1 0 0 -1 20 62)"/>
</clipPath>
</defs>
</svg>
