<svg width="48" height="48" viewBox="0 0 48 48" fill="none" xmlns="http://www.w3.org/2000/svg">
<g filter="url(#filter0_d_558_481)">
<rect x="4" width="40" height="40" rx="20" fill="#002B45" shape-rendering="crispEdges"/>
<path d="M23.125 16.8555C23.5625 16.8555 23.9727 16.9375 24.3555 17.1016C24.7383 17.2656 25.071 17.4889 25.3535 17.7715C25.6361 18.054 25.8594 18.3867 26.0234 18.7695C26.1875 19.1523 26.2695 19.5625 26.2695 20C26.2695 20.4284 26.1875 20.834 26.0234 21.2168C25.8594 21.5996 25.6361 21.9346 25.3535 22.2217C25.071 22.5088 24.7383 22.7344 24.3555 22.8984C23.9727 23.0625 23.5625 23.1445 23.125 23.1445C22.6966 23.1445 22.291 23.0625 21.9082 22.8984C21.5254 22.7344 21.1904 22.5088 20.9033 22.2217C20.6162 21.9346 20.3906 21.5996 20.2266 21.2168C20.0625 20.834 19.9805 20.4284 19.9805 20C19.9805 19.5625 20.0625 19.1523 20.2266 18.7695C20.3906 18.3867 20.6162 18.054 20.9033 17.7715C21.1904 17.4889 21.5254 17.2656 21.9082 17.1016C22.291 16.9375 22.6966 16.8555 23.125 16.8555ZM23.125 22.0371C23.6901 22.0371 24.1732 21.8389 24.5742 21.4424C24.9753 21.0459 25.1758 20.5651 25.1758 20C25.1758 19.4349 24.9753 18.9518 24.5742 18.5508C24.1732 18.1497 23.6901 17.9492 23.125 17.9492C22.5599 17.9492 22.0791 18.1497 21.6826 18.5508C21.2861 18.9518 21.0879 19.4349 21.0879 20C21.0879 20.5651 21.2884 21.0459 21.6895 21.4424C22.0905 21.8389 22.569 22.0371 23.125 22.0371ZM27.1309 16.7324C27.1309 16.9329 27.0602 17.1038 26.9189 17.2451C26.7777 17.3864 26.6022 17.457 26.3926 17.457C26.1921 17.457 26.0212 17.3864 25.8799 17.2451C25.7386 17.1038 25.668 16.9329 25.668 16.7324C25.668 16.5228 25.7386 16.3473 25.8799 16.2061C26.0212 16.0648 26.1921 15.9941 26.3926 15.9941C26.6022 15.9941 26.7777 16.0648 26.9189 16.2061C27.0602 16.3473 27.1309 16.5228 27.1309 16.7324ZM29.209 17.4707C29.2272 17.7259 29.2409 18.0859 29.25 18.5508C29.25 19.0065 29.25 19.4873 29.25 19.9932C29.25 20.499 29.25 20.9844 29.25 21.4492C29.2409 21.9141 29.2272 22.2741 29.209 22.5293C29.1908 23.0124 29.111 23.4704 28.9697 23.9033C28.8285 24.3363 28.5801 24.7305 28.2246 25.0859C27.8691 25.4505 27.4749 25.7012 27.042 25.8379C26.609 25.9746 26.1465 26.0566 25.6543 26.084C25.3991 26.0931 25.0391 26.1022 24.5742 26.1113C24.1185 26.1204 23.6377 26.125 23.1318 26.125C22.626 26.125 22.1406 26.1204 21.6758 26.1113C21.2109 26.1022 20.8509 26.0931 20.5957 26.084C20.1035 26.0566 19.6432 25.9746 19.2148 25.8379C18.7865 25.7012 18.39 25.4505 18.0254 25.0859C17.6699 24.7305 17.4238 24.3363 17.2871 23.9033C17.1504 23.4704 17.0684 23.0124 17.041 22.5293C17.0228 22.2741 17.0137 21.9141 17.0137 21.4492C17.0046 20.9844 17 20.499 17 19.9932C17 19.4873 17.0046 19.002 17.0137 18.5371C17.0137 18.0814 17.0228 17.7259 17.041 17.4707C17.0684 16.9785 17.1504 16.516 17.2871 16.083C17.4238 15.6501 17.6699 15.2559 18.0254 14.9004C18.39 14.5449 18.7887 14.2965 19.2217 14.1553C19.6546 14.014 20.1126 13.9342 20.5957 13.916C20.8509 13.8978 21.2109 13.8841 21.6758 13.875C22.1406 13.875 22.626 13.875 23.1318 13.875C23.6377 13.875 24.1185 13.875 24.5742 13.875C25.0391 13.8841 25.3991 13.8978 25.6543 13.916C26.1465 13.9434 26.609 14.0254 27.042 14.1621C27.4749 14.2988 27.8691 14.5449 28.2246 14.9004C28.5801 15.265 28.8285 15.6615 28.9697 16.0898C29.111 16.5182 29.1908 16.9785 29.209 17.4707ZM27.9102 23.6094C27.9831 23.4089 28.0378 23.1491 28.0742 22.8301C28.1107 22.5111 28.1357 22.1784 28.1494 21.832C28.1631 21.4857 28.1654 21.1484 28.1562 20.8203C28.1562 20.4922 28.1562 20.2188 28.1562 20C28.1562 19.7721 28.1562 19.4941 28.1562 19.166C28.1654 18.8379 28.1631 18.5007 28.1494 18.1543C28.1357 17.8079 28.1107 17.4798 28.0742 17.1699C28.0378 16.8509 27.9831 16.5911 27.9102 16.3906C27.8008 16.1172 27.6458 15.8802 27.4453 15.6797C27.2448 15.4792 27.0078 15.3242 26.7344 15.2148C26.5339 15.1419 26.2741 15.0872 25.9551 15.0508C25.6452 15.0143 25.3171 14.9893 24.9707 14.9756C24.6243 14.9619 24.2871 14.9596 23.959 14.9688C23.6309 14.9688 23.3529 14.9688 23.125 14.9688C22.9062 14.9688 22.6328 14.9688 22.3047 14.9688C21.9766 14.9596 21.6393 14.9619 21.293 14.9756C20.9466 14.9893 20.6139 15.0143 20.2949 15.0508C19.9759 15.0872 19.7161 15.1419 19.5156 15.2148C19.2422 15.3242 19.0052 15.4792 18.8047 15.6797C18.6042 15.8802 18.4538 16.1172 18.3535 16.3906C18.2715 16.5911 18.2122 16.8509 18.1758 17.1699C18.1393 17.4798 18.1165 17.8079 18.1074 18.1543C18.0983 18.5007 18.0938 18.8379 18.0938 19.166C18.1029 19.4941 18.1074 19.7721 18.1074 20C18.1074 20.2188 18.1029 20.4922 18.0938 20.8203C18.0938 21.1484 18.0983 21.4857 18.1074 21.832C18.1165 22.1784 18.1393 22.5111 18.1758 22.8301C18.2122 23.1491 18.2715 23.4089 18.3535 23.6094C18.4629 23.8828 18.6178 24.1175 18.8184 24.3135C19.0189 24.5094 19.2513 24.6621 19.5156 24.7715C19.7161 24.8535 19.9759 24.9128 20.2949 24.9492C20.6139 24.9857 20.9466 25.0085 21.293 25.0176C21.6393 25.0267 21.9766 25.0312 22.3047 25.0312C22.6328 25.0221 22.9062 25.0176 23.125 25.0176C23.3529 25.0176 23.6309 25.0221 23.959 25.0312C24.2871 25.0312 24.6243 25.0267 24.9707 25.0176C25.3171 25.0085 25.6452 24.9857 25.9551 24.9492C26.2741 24.9128 26.5339 24.8535 26.7344 24.7715C27.0078 24.6621 27.2448 24.5072 27.4453 24.3066C27.6458 24.1061 27.8008 23.8737 27.9102 23.6094Z" fill="#FAA419"/>
</g>
<defs>
<filter id="filter0_d_558_481" x="0" y="0" width="48" height="48" filterUnits="userSpaceOnUse" color-interpolation-filters="sRGB">
<feFlood flood-opacity="0" result="BackgroundImageFix"/>
<feColorMatrix in="SourceAlpha" type="matrix" values="0 0 0 0 0 0 0 0 0 0 0 0 0 0 0 0 0 0 127 0" result="hardAlpha"/>
<feOffset dy="4"/>
<feGaussianBlur stdDeviation="2"/>
<feComposite in2="hardAlpha" operator="out"/>
<feColorMatrix type="matrix" values="0 0 0 0 0 0 0 0 0 0 0 0 0 0 0 0 0 0 0.25 0"/>
<feBlend mode="normal" in2="BackgroundImageFix" result="effect1_dropShadow_558_481"/>
<feBlend mode="normal" in="SourceGraphic" in2="effect1_dropShadow_558_481" result="shape"/>
</filter>
</defs>
</svg>
