<svg width="48" height="48" viewBox="0 0 48 48" fill="none" xmlns="http://www.w3.org/2000/svg">
<g filter="url(#filter0_d_558_478)">
<rect x="4" width="40" height="40" rx="20" fill="#002B45" shape-rendering="crispEdges"/>
<path d="M19.696 25V17.3636H22.4403V25H19.696ZM21.0682 16.5682C20.697 16.5682 20.3788 16.4455 20.1136 16.2003C19.8485 15.955 19.7159 15.66 19.7159 15.3153C19.7159 14.9706 19.8485 14.6757 20.1136 14.4304C20.3788 14.1851 20.697 14.0625 21.0682 14.0625C21.4427 14.0625 21.7609 14.1851 22.0227 14.4304C22.2879 14.6757 22.4205 14.9706 22.4205 15.3153C22.4205 15.66 22.2879 15.955 22.0227 16.2003C21.7609 16.4455 21.4427 16.5682 21.0682 16.5682ZM26.5829 20.7045V25H23.8386V17.3636H26.4437V18.8153H26.5233C26.689 18.3314 26.9806 17.9519 27.3983 17.6768C27.8192 17.4018 28.3097 17.2642 28.8699 17.2642C29.4101 17.2642 29.8791 17.3885 30.2768 17.6371C30.6779 17.8823 30.9877 18.2204 31.2065 18.6513C31.4286 19.0821 31.5379 19.5743 31.5346 20.1278V25H28.7903V20.7045C28.7936 20.3267 28.6975 20.0301 28.502 19.8146C28.3097 19.5992 28.0413 19.4915 27.6966 19.4915C27.4712 19.4915 27.274 19.5412 27.1049 19.6406C26.9392 19.7367 26.8116 19.8759 26.7221 20.0582C26.6326 20.2372 26.5862 20.4527 26.5829 20.7045Z" fill="#FAA419"/>
</g>
<defs>
<filter id="filter0_d_558_478" x="0" y="0" width="48" height="48" filterUnits="userSpaceOnUse" color-interpolation-filters="sRGB">
<feFlood flood-opacity="0" result="BackgroundImageFix"/>
<feColorMatrix in="SourceAlpha" type="matrix" values="0 0 0 0 0 0 0 0 0 0 0 0 0 0 0 0 0 0 127 0" result="hardAlpha"/>
<feOffset dy="4"/>
<feGaussianBlur stdDeviation="2"/>
<feComposite in2="hardAlpha" operator="out"/>
<feColorMatrix type="matrix" values="0 0 0 0 0 0 0 0 0 0 0 0 0 0 0 0 0 0 0.25 0"/>
<feBlend mode="normal" in2="BackgroundImageFix" result="effect1_dropShadow_558_478"/>
<feBlend mode="normal" in="SourceGraphic" in2="effect1_dropShadow_558_478" result="shape"/>
</filter>
</defs>
</svg>
