<svg width="48" height="48" viewBox="0 0 48 48" fill="none" xmlns="http://www.w3.org/2000/svg">
<g filter="url(#filter0_d_558_472)">
<rect x="4" width="40" height="40" rx="20" fill="#002B45" shape-rendering="crispEdges"/>
<path d="M29.5645 17.1426C29.5645 17.2064 29.5645 17.2702 29.5645 17.334C29.5645 17.3978 29.5645 17.4616 29.5645 17.5254C29.5645 18.4733 29.3867 19.4303 29.0312 20.3965C28.6758 21.3626 28.154 22.2376 27.4658 23.0215C26.7777 23.8053 25.9232 24.4479 24.9023 24.9492C23.8906 25.4414 22.724 25.6875 21.4023 25.6875C21.0013 25.6875 20.6048 25.6602 20.2129 25.6055C19.821 25.5417 19.4404 25.4551 19.0713 25.3457C18.7021 25.2363 18.3444 25.1042 17.998 24.9492C17.6517 24.7852 17.319 24.6029 17 24.4023C17.1185 24.4115 17.2347 24.4183 17.3486 24.4229C17.4626 24.4274 17.5788 24.4297 17.6973 24.4297C18.3626 24.4297 18.9984 24.3226 19.6045 24.1084C20.2106 23.8942 20.7598 23.5957 21.252 23.2129C20.623 23.1947 20.0648 22.9987 19.5771 22.625C19.0895 22.2513 18.7546 21.7819 18.5723 21.2168C18.6634 21.2259 18.7523 21.235 18.8389 21.2441C18.9255 21.2533 19.0189 21.2578 19.1191 21.2578C19.2467 21.2578 19.3743 21.251 19.502 21.2373C19.6296 21.2236 19.7526 21.1986 19.8711 21.1621C19.2148 21.0254 18.668 20.6973 18.2305 20.1777C17.793 19.6582 17.5742 19.0475 17.5742 18.3457V18.3184C17.7656 18.4186 17.9707 18.5007 18.1895 18.5645C18.4082 18.6283 18.6315 18.6647 18.8594 18.6738C18.4766 18.4186 18.1689 18.0814 17.9365 17.6621C17.7041 17.2428 17.5879 16.7826 17.5879 16.2812C17.5879 16.0169 17.6221 15.764 17.6904 15.5225C17.7588 15.2809 17.8522 15.0553 17.9707 14.8457C18.3262 15.2741 18.7227 15.666 19.1602 16.0215C19.5977 16.377 20.0671 16.6846 20.5684 16.9443C21.0697 17.2041 21.6029 17.4115 22.168 17.5664C22.724 17.7214 23.2982 17.8125 23.8906 17.8398C23.8724 17.7305 23.8564 17.6211 23.8428 17.5117C23.8291 17.4023 23.8223 17.293 23.8223 17.1836C23.8223 16.7917 23.8952 16.418 24.041 16.0625C24.196 15.7161 24.4033 15.4131 24.6631 15.1533C24.9229 14.8936 25.2259 14.6908 25.5723 14.5449C25.9186 14.39 26.2923 14.3125 26.6934 14.3125C27.1035 14.3125 27.4886 14.3945 27.8486 14.5586C28.2087 14.7227 28.5208 14.9414 28.7852 15.2148C29.1133 15.1602 29.43 15.0736 29.7354 14.9551C30.0407 14.8366 30.3301 14.6953 30.6035 14.5312C30.5033 14.8594 30.3438 15.1602 30.125 15.4336C29.9062 15.707 29.6465 15.9303 29.3457 16.1035C29.6374 16.0762 29.9222 16.0238 30.2002 15.9463C30.4782 15.8688 30.7448 15.7754 31 15.666C30.8086 15.9486 30.5898 16.2152 30.3438 16.4658C30.0977 16.7165 29.8379 16.9421 29.5645 17.1426Z" fill="#FAA419"/>
</g>
<defs>
<filter id="filter0_d_558_472" x="0" y="0" width="48" height="48" filterUnits="userSpaceOnUse" color-interpolation-filters="sRGB">
<feFlood flood-opacity="0" result="BackgroundImageFix"/>
<feColorMatrix in="SourceAlpha" type="matrix" values="0 0 0 0 0 0 0 0 0 0 0 0 0 0 0 0 0 0 127 0" result="hardAlpha"/>
<feOffset dy="4"/>
<feGaussianBlur stdDeviation="2"/>
<feComposite in2="hardAlpha" operator="out"/>
<feColorMatrix type="matrix" values="0 0 0 0 0 0 0 0 0 0 0 0 0 0 0 0 0 0 0.25 0"/>
<feBlend mode="normal" in2="BackgroundImageFix" result="effect1_dropShadow_558_472"/>
<feBlend mode="normal" in="SourceGraphic" in2="effect1_dropShadow_558_472" result="shape"/>
</filter>
</defs>
</svg>
