<svg width="12" height="11" viewBox="0 0 12 11" fill="none" xmlns="http://www.w3.org/2000/svg">
<path d="M0.000710241 10.9375V3.30114H2.74503V10.9375H0.000710241ZM1.37287 2.50568C1.00166 2.50568 0.683475 2.38305 0.418324 2.13778C0.153172 1.89252 0.0205966 1.59754 0.0205966 1.25284C0.0205966 0.908144 0.153172 0.613163 0.418324 0.367897C0.683475 0.122632 1.00166 0 1.37287 0C1.7474 0 2.06558 0.122632 2.32741 0.367897C2.59257 0.613163 2.72514 0.908144 2.72514 1.25284C2.72514 1.59754 2.59257 1.89252 2.32741 2.13778C2.06558 2.38305 1.7474 2.50568 1.37287 2.50568ZM6.88761 6.64205V10.9375H4.14329V3.30114H6.7484V4.75284H6.82795C6.99367 4.26894 7.28533 3.88944 7.70295 3.61435C8.12388 3.33925 8.61441 3.2017 9.17454 3.2017C9.71478 3.2017 10.1838 3.32599 10.5815 3.57457C10.9825 3.81984 11.2924 4.15791 11.5112 4.58878C11.7333 5.01965 11.8426 5.51184 11.8393 6.06534V10.9375H9.09499V6.64205C9.09831 6.2642 9.00219 5.96757 8.80664 5.75213C8.61441 5.5367 8.34594 5.42898 8.00124 5.42898C7.77586 5.42898 7.57866 5.47869 7.40962 5.57812C7.2439 5.67424 7.1163 5.81345 7.02681 5.99574C6.93732 6.17472 6.89092 6.39015 6.88761 6.64205Z" fill="white"/>
</svg>
