<svg width="40" height="40" viewBox="0 0 40 40" fill="none" xmlns="http://www.w3.org/2000/svg">
<rect width="40" height="40" rx="20" fill="white" fill-opacity="0.098"/>
<path d="M19.125 16.8555C19.5625 16.8555 19.9727 16.9375 20.3555 17.1016C20.7383 17.2656 21.071 17.4889 21.3535 17.7715C21.6361 18.054 21.8594 18.3867 22.0234 18.7695C22.1875 19.1523 22.2695 19.5625 22.2695 20C22.2695 20.4284 22.1875 20.834 22.0234 21.2168C21.8594 21.5996 21.6361 21.9346 21.3535 22.2217C21.071 22.5088 20.7383 22.7344 20.3555 22.8984C19.9727 23.0625 19.5625 23.1445 19.125 23.1445C18.6966 23.1445 18.291 23.0625 17.9082 22.8984C17.5254 22.7344 17.1904 22.5088 16.9033 22.2217C16.6162 21.9346 16.3906 21.5996 16.2266 21.2168C16.0625 20.834 15.9805 20.4284 15.9805 20C15.9805 19.5625 16.0625 19.1523 16.2266 18.7695C16.3906 18.3867 16.6162 18.054 16.9033 17.7715C17.1904 17.4889 17.5254 17.2656 17.9082 17.1016C18.291 16.9375 18.6966 16.8555 19.125 16.8555ZM19.125 22.0371C19.6901 22.0371 20.1732 21.8389 20.5742 21.4424C20.9753 21.0459 21.1758 20.5651 21.1758 20C21.1758 19.4349 20.9753 18.9518 20.5742 18.5508C20.1732 18.1497 19.6901 17.9492 19.125 17.9492C18.5599 17.9492 18.0791 18.1497 17.6826 18.5508C17.2861 18.9518 17.0879 19.4349 17.0879 20C17.0879 20.5651 17.2884 21.0459 17.6895 21.4424C18.0905 21.8389 18.569 22.0371 19.125 22.0371ZM23.1309 16.7324C23.1309 16.9329 23.0602 17.1038 22.9189 17.2451C22.7777 17.3864 22.6022 17.457 22.3926 17.457C22.1921 17.457 22.0212 17.3864 21.8799 17.2451C21.7386 17.1038 21.668 16.9329 21.668 16.7324C21.668 16.5228 21.7386 16.3473 21.8799 16.2061C22.0212 16.0648 22.1921 15.9941 22.3926 15.9941C22.6022 15.9941 22.7777 16.0648 22.9189 16.2061C23.0602 16.3473 23.1309 16.5228 23.1309 16.7324ZM25.209 17.4707C25.2272 17.7259 25.2409 18.0859 25.25 18.5508C25.25 19.0065 25.25 19.4873 25.25 19.9932C25.25 20.499 25.25 20.9844 25.25 21.4492C25.2409 21.9141 25.2272 22.2741 25.209 22.5293C25.1908 23.0124 25.111 23.4704 24.9697 23.9033C24.8285 24.3363 24.5801 24.7305 24.2246 25.0859C23.8691 25.4505 23.4749 25.7012 23.042 25.8379C22.609 25.9746 22.1465 26.0566 21.6543 26.084C21.3991 26.0931 21.0391 26.1022 20.5742 26.1113C20.1185 26.1204 19.6377 26.125 19.1318 26.125C18.626 26.125 18.1406 26.1204 17.6758 26.1113C17.2109 26.1022 16.8509 26.0931 16.5957 26.084C16.1035 26.0566 15.6432 25.9746 15.2148 25.8379C14.7865 25.7012 14.39 25.4505 14.0254 25.0859C13.6699 24.7305 13.4238 24.3363 13.2871 23.9033C13.1504 23.4704 13.0684 23.0124 13.041 22.5293C13.0228 22.2741 13.0137 21.9141 13.0137 21.4492C13.0046 20.9844 13 20.499 13 19.9932C13 19.4873 13.0046 19.002 13.0137 18.5371C13.0137 18.0814 13.0228 17.7259 13.041 17.4707C13.0684 16.9785 13.1504 16.516 13.2871 16.083C13.4238 15.6501 13.6699 15.2559 14.0254 14.9004C14.39 14.5449 14.7887 14.2965 15.2217 14.1553C15.6546 14.014 16.1126 13.9342 16.5957 13.916C16.8509 13.8978 17.2109 13.8841 17.6758 13.875C18.1406 13.875 18.626 13.875 19.1318 13.875C19.6377 13.875 20.1185 13.875 20.5742 13.875C21.0391 13.8841 21.3991 13.8978 21.6543 13.916C22.1465 13.9434 22.609 14.0254 23.042 14.1621C23.4749 14.2988 23.8691 14.5449 24.2246 14.9004C24.5801 15.265 24.8285 15.6615 24.9697 16.0898C25.111 16.5182 25.1908 16.9785 25.209 17.4707ZM23.9102 23.6094C23.9831 23.4089 24.0378 23.1491 24.0742 22.8301C24.1107 22.5111 24.1357 22.1784 24.1494 21.832C24.1631 21.4857 24.1654 21.1484 24.1562 20.8203C24.1562 20.4922 24.1562 20.2188 24.1562 20C24.1562 19.7721 24.1562 19.4941 24.1562 19.166C24.1654 18.8379 24.1631 18.5007 24.1494 18.1543C24.1357 17.8079 24.1107 17.4798 24.0742 17.1699C24.0378 16.8509 23.9831 16.5911 23.9102 16.3906C23.8008 16.1172 23.6458 15.8802 23.4453 15.6797C23.2448 15.4792 23.0078 15.3242 22.7344 15.2148C22.5339 15.1419 22.2741 15.0872 21.9551 15.0508C21.6452 15.0143 21.3171 14.9893 20.9707 14.9756C20.6243 14.9619 20.2871 14.9596 19.959 14.9688C19.6309 14.9688 19.3529 14.9688 19.125 14.9688C18.9062 14.9688 18.6328 14.9688 18.3047 14.9688C17.9766 14.9596 17.6393 14.9619 17.293 14.9756C16.9466 14.9893 16.6139 15.0143 16.2949 15.0508C15.9759 15.0872 15.7161 15.1419 15.5156 15.2148C15.2422 15.3242 15.0052 15.4792 14.8047 15.6797C14.6042 15.8802 14.4538 16.1172 14.3535 16.3906C14.2715 16.5911 14.2122 16.8509 14.1758 17.1699C14.1393 17.4798 14.1165 17.8079 14.1074 18.1543C14.0983 18.5007 14.0938 18.8379 14.0938 19.166C14.1029 19.4941 14.1074 19.7721 14.1074 20C14.1074 20.2188 14.1029 20.4922 14.0938 20.8203C14.0938 21.1484 14.0983 21.4857 14.1074 21.832C14.1165 22.1784 14.1393 22.5111 14.1758 22.8301C14.2122 23.1491 14.2715 23.4089 14.3535 23.6094C14.4629 23.8828 14.6178 24.1175 14.8184 24.3135C15.0189 24.5094 15.2513 24.6621 15.5156 24.7715C15.7161 24.8535 15.9759 24.9128 16.2949 24.9492C16.6139 24.9857 16.9466 25.0085 17.293 25.0176C17.6393 25.0267 17.9766 25.0312 18.3047 25.0312C18.6328 25.0221 18.9062 25.0176 19.125 25.0176C19.3529 25.0176 19.6309 25.0221 19.959 25.0312C20.2871 25.0312 20.6243 25.0267 20.9707 25.0176C21.3171 25.0085 21.6452 24.9857 21.9551 24.9492C22.2741 24.9128 22.5339 24.8535 22.7344 24.7715C23.0078 24.6621 23.2448 24.5072 23.4453 24.3066C23.6458 24.1061 23.8008 23.8737 23.9102 23.6094Z" fill="white"/>
</svg>
