<svg width="12" height="16" viewBox="0 0 12 16" fill="none" xmlns="http://www.w3.org/2000/svg">
<path d="M6 0C5.17708 0 4.40104 0.15625 3.67188 0.46875C2.94271 0.78125 2.30469 1.21094 1.75781 1.75781C1.21094 2.30469 0.78125 2.94271 0.46875 3.67188C0.15625 4.40104 0 5.17708 0 6C0 7.10417 0.291667 8.23438 0.875 9.39062C1.44792 10.5365 2.08854 11.5833 2.79688 12.5312C3.50521 13.4792 4.16146 14.2656 4.76562 14.8906C5.38021 15.5156 5.71354 15.8542 5.76562 15.9062C5.79688 15.9375 5.83333 15.9609 5.875 15.9766C5.91667 15.9922 5.95833 16 6 16C6.04167 16 6.08333 15.9922 6.125 15.9766C6.16667 15.9609 6.20312 15.9375 6.23438 15.9062C6.28646 15.8542 6.61979 15.5156 7.23438 14.8906C7.83854 14.2656 8.49479 13.4792 9.20312 12.5312C9.91146 11.5833 10.5521 10.5365 11.125 9.39062C11.7083 8.23438 12 7.10417 12 6C12 5.17708 11.8438 4.40104 11.5312 3.67188C11.2188 2.94271 10.7891 2.30469 10.2422 1.75781C9.69531 1.21094 9.05729 0.78125 8.32812 0.46875C7.59896 0.15625 6.82292 0 6 0ZM6 9.32812C5.54167 9.32812 5.10938 9.24479 4.70312 9.07812C4.29688 8.90104 3.94271 8.66146 3.64062 8.35938C3.33854 8.05729 3.09896 7.70312 2.92188 7.29688C2.75521 6.89062 2.67188 6.45833 2.67188 6C2.67188 5.54167 2.75521 5.10938 2.92188 4.70312C3.09896 4.29688 3.33854 3.94271 3.64062 3.64062C3.94271 3.33854 4.29688 3.09896 4.70312 2.92188C5.10938 2.75521 5.54167 2.67188 6 2.67188C6.45833 2.67188 6.89062 2.75521 7.29688 2.92188C7.70312 3.09896 8.05729 3.33854 8.35938 3.64062C8.66146 3.94271 8.90104 4.29688 9.07812 4.70312C9.24479 5.10938 9.32812 5.54167 9.32812 6C9.32812 6.45833 9.24479 6.89062 9.07812 7.29688C8.90104 7.70312 8.66146 8.05729 8.35938 8.35938C8.05729 8.66146 7.70312 8.90104 7.29688 9.07812C6.89062 9.24479 6.45833 9.32812 6 9.32812Z" fill="#FAA419"/>
</svg>
