<svg width="256" height="54" viewBox="0 0 256 54" fill="none" xmlns="http://www.w3.org/2000/svg">
<path d="M12.3584 43.0894C11.8901 42.5933 12.422 41.7715 13.0341 41.8609C16.7744 41.8205 20.5168 41.8013 24.2592 41.846C23.8299 43.2959 23.2363 44.7265 22.5153 46.038C21.2583 46.9066 19.9376 47.6816 18.6846 48.5566C18.1116 49.0526 17.4995 48.4225 17.0846 48.0222C15.4866 46.4021 13.8188 44.8436 12.3584 43.0894Z" fill="#002B45"/>
<path d="M8.05367 14.1819C8.1728 13.7348 8.72947 13.8093 9.07043 13.788C14.5258 13.8497 19.9791 13.7433 25.4325 13.9051C24.2309 14.9121 23.0231 15.9298 21.8667 16.9815C17.6827 17.0709 13.4947 16.9666 9.31278 17.0006C8.89788 16.9623 8.42955 17.0645 8.05778 16.8325C7.94481 15.9574 7.96535 15.059 8.05572 14.184L8.05367 14.1819ZM41.6713 6.41532C40.4902 8.02484 39.4838 9.76422 38.3171 11.3822C38.2021 11.5419 38.0871 11.6995 37.9679 11.8549C37.8221 12.0486 37.6742 12.2445 37.5202 12.4318C37.4894 12.4744 37.4585 12.517 37.4277 12.5596L37.4442 12.5681C33.4183 18.0502 29.448 23.5792 25.4263 29.0635C27.7165 29.072 30.0067 29.0443 32.2927 29.0102C30.7358 32.6785 29.2262 36.3723 27.6508 40.0362C27.5809 40.2087 27.509 40.379 27.4371 40.5493C25.8802 44.3304 24.1672 48.0455 22.6493 51.8436C23.6167 50.4597 24.4732 48.9993 25.4735 47.6431C26.9154 45.678 28.0923 43.5192 29.6246 41.6245C29.6534 41.5819 29.6863 41.5393 29.715 41.4988C33.7922 35.8826 37.7502 30.1684 41.9547 24.6543C39.6974 24.7012 37.44 24.6011 35.1848 24.7246C35.4847 23.7644 35.9448 22.8787 36.3227 21.9526C38.0829 17.7649 39.7323 13.5283 41.4761 9.33416C42.0019 8.12064 42.5278 6.90498 43.0474 5.68933C43.1357 5.48495 43.2241 5.27844 43.3124 5.0698C43.7129 4.12241 44.1093 3.17076 44.4914 2.21484C43.524 3.59655 42.6674 5.05916 41.6672 6.41532H41.6713ZM8.05778 36.4702C8.36588 36.1402 8.8753 36.2871 9.27583 36.2296C13.3859 36.2914 17.502 36.1615 21.6141 36.2743C22.8834 37.1515 23.9002 38.4054 25.1326 39.3592C19.8395 39.3741 14.5484 39.3187 9.25732 39.3209C8.84447 39.3145 8.43573 39.2634 8.02699 39.1974C7.99002 38.2905 7.86881 37.3644 8.05983 36.4681L8.05778 36.4702ZM2.3354 13.8242C3.32132 13.805 4.31954 13.8497 5.25205 13.9753C5.59301 14.9313 5.5581 15.9297 5.31163 16.892C3.99913 16.99 2.63733 17.0347 1.30019 16.9815C1.59596 15.9063 1.94309 14.8546 2.3354 13.8263V13.8242ZM2.83451 19.6534C3.31514 19.5001 3.81425 19.4319 4.31748 19.4447C9.73589 19.4639 15.1543 19.4128 20.5727 19.4511C19.9381 20.3985 19.6936 21.5481 19.1514 22.5445C14.0493 22.5147 8.94098 22.4998 3.83889 22.4891C3.51025 22.4508 3.05427 22.5594 2.8653 22.1932C2.77492 21.3501 2.84478 20.4986 2.83656 19.6534H2.83451ZM0.0369577 25.0035C1.79517 24.98 3.55341 24.9928 5.30957 25.078C5.36297 26.0637 5.62175 27.1729 5.22944 28.0948C4.14493 28.3013 3.02966 28.1459 1.93283 28.1842C1.3002 28.1586 0.667577 28.1799 0.0328958 28.1842C0.012356 27.6711 0 27.1559 0 26.6343C0 26.0871 0.0123099 25.5421 0.0369577 25.0035ZM7.97358 25.2334C8.27552 24.9694 8.7171 25.1057 9.07655 25.061C12.2972 25.0993 15.5199 25.0205 18.7406 25.1248C18.8207 26.1361 18.872 27.1686 18.718 28.1778C15.4193 28.2204 12.1185 28.1757 8.82185 28.1735C8.53019 28.1097 7.96949 28.28 7.94279 27.818C7.86269 26.96 7.84213 26.0807 7.97358 25.2334ZM2.80372 30.7198C3.30284 30.6559 3.80192 30.6282 4.30309 30.6282C9.31481 30.6623 14.3245 30.6197 19.3342 30.6921C19.5642 31.7098 19.938 32.6827 20.3714 33.6237C19.6053 33.7387 18.8289 33.7238 18.0587 33.7195C13.392 33.7259 8.72533 33.7174 4.05868 33.711C3.65199 33.6791 3.1878 33.7515 2.84273 33.4747C2.65787 32.5678 2.7688 31.6331 2.80578 30.7177L2.80372 30.7198ZM1.28991 36.2509C2.65581 36.2403 4.02581 36.2339 5.38965 36.3148C5.38349 37.2323 5.4554 38.1542 5.35475 39.0654C5.12471 39.438 4.64614 39.3252 4.28669 39.3656L2.2984 39.3486C1.91841 38.3373 1.57952 37.3047 1.28991 36.2488V36.2509Z" fill="#FAA419"/>
<path d="M47.557 5.04942C48.1465 4.55975 48.7421 5.14523 49.1796 5.554C50.8392 7.18906 52.6427 8.68573 54.1277 10.5039C54.4378 10.8147 54.3988 11.3108 54.1051 11.6173C52.8521 13.1183 51.5684 14.6149 50.5887 16.3288C51.6095 17.8552 52.2175 19.6074 52.9159 21.3063C54.6864 21.2872 56.461 21.4618 58.1966 21.8194C58.8601 21.9323 59.6016 22.4624 59.5132 23.2458C59.5071 25.5536 59.5297 27.8593 59.4907 30.1672C59.5523 30.94 58.856 31.568 58.1494 31.6213C56.4097 31.8235 54.6535 31.8065 52.9117 31.9853C52.4167 33.8908 51.7697 35.7664 50.7468 37.4376C51.8026 39.0067 53.1233 40.3714 54.1133 41.9894C54.3926 42.3854 54.2201 42.9006 53.9079 43.2157C52.2483 45.0253 50.6626 46.9116 48.9065 48.6191C48.5018 49.0023 47.9575 48.6914 47.5898 48.4253C46.1048 47.3481 44.663 46.2027 43.1594 45.1573C41.6991 45.9046 40.1503 46.4283 38.6181 46.984C38.4332 48.4977 38.2689 50.0136 38.1353 51.5315C38.1025 52.3959 37.4473 53.2603 36.562 53.2326C34.4156 53.3007 32.263 53.2347 30.1146 53.2645C29.2642 53.3284 28.4837 52.5513 28.42 51.6912C28.2989 50.4777 28.3912 49.2514 28.1797 48.0485C29.4942 45.9238 30.9238 43.865 32.5013 41.9404C34.4464 42.0043 36.4244 41.8659 38.2833 41.2251C44.3487 39.1408 48.7031 32.5985 48.2594 25.9603C47.9678 21.4106 45.4311 17.223 41.8983 14.5873C42.6747 12.2986 43.679 10.0972 44.6054 7.87032C45.1025 6.49713 46.4746 5.83715 47.5652 5.0473L47.557 5.04942Z" fill="#002B45"/>
<path d="M38.5421 6.78167C38.5791 5.11681 38.273 3.46472 38.1642 1.80411C38.1601 0.841808 37.3487 -0.0608709 36.3957 0.00512763C34.2513 -0.00551729 32.1008 0.00087122 29.9565 0.0200321C29.1718 0.0030002 28.4652 0.758783 28.4385 1.55715C28.342 3.14324 28.3708 4.73573 28.342 6.32395C26.781 6.77316 25.222 7.29476 23.8027 8.12506C22.0671 7.2394 20.5861 5.92583 18.9327 4.89753C18.3473 4.48025 17.7948 5.11255 17.3799 5.483C15.9791 6.89238 14.6234 8.35074 13.1836 9.71968C12.82 10.0901 12.2984 10.5436 12.551 11.1376C12.9269 11.3803 13.4034 11.2674 13.8265 11.31C20.9497 11.3505 28.0688 11.2313 35.1921 11.2462C36.2704 9.72819 37.5932 8.38267 38.5462 6.7838L38.5421 6.78167Z" fill="#002B45"/>
<path d="M133.268 26.4214C133.268 27.7009 133.019 28.9165 132.53 30.0364C132.027 31.1818 131.335 32.1995 130.472 33.0596C129.607 33.9197 128.574 34.6116 127.401 35.1119C126.239 35.608 124.971 35.8592 123.638 35.8592C122.305 35.8592 121.04 35.608 119.876 35.1119C118.699 34.6095 117.657 33.9154 116.776 33.051C115.901 32.1909 115.205 31.1775 114.708 30.0364C114.217 28.9165 113.97 27.7009 113.97 26.4214C113.97 25.1163 114.219 23.8858 114.71 22.7659C115.207 21.6248 115.903 20.6114 116.778 19.7513C117.657 18.8848 118.701 18.1929 119.878 17.6904C121.04 17.1944 122.305 16.9431 123.64 16.9431C124.976 16.9431 126.241 17.1944 127.403 17.6904C128.574 18.1907 129.607 18.8805 130.474 19.7428C131.337 20.6029 132.029 21.6205 132.532 22.7659C133.023 23.8858 133.27 25.1163 133.27 26.4214H133.268ZM138.961 19.9003C138.084 17.8991 136.878 16.1256 135.375 14.6268C133.873 13.1323 132.099 11.94 130.102 11.0821C128.091 10.2177 125.916 9.78125 123.638 9.78125C121.363 9.78125 119.181 10.2177 117.16 11.0821C115.147 11.9422 113.364 13.1344 111.863 14.6289C110.357 16.1277 109.152 17.9012 108.277 19.9024C107.387 21.9314 106.938 24.1263 106.938 26.4235C106.938 28.6973 107.387 30.8774 108.275 32.902C109.15 34.9033 110.357 36.6788 111.863 38.1776C113.364 39.6743 115.147 40.8665 117.16 41.7245C119.181 42.5889 121.361 43.0253 123.64 43.0253C125.922 43.0253 128.096 42.5889 130.106 41.7245C132.103 40.8665 133.876 39.6743 135.379 38.1798C136.883 36.6809 138.09 34.9075 138.965 32.9063C139.853 30.8774 140.304 28.6973 140.304 26.4256C140.304 24.1263 139.855 21.9335 138.965 19.9046L138.961 19.9003Z" fill="#002B45"/>
<path d="M89.6842 10.293C87.5028 10.4164 85.4283 10.938 83.516 11.8429C81.6161 12.7434 79.9318 13.9484 78.5125 15.4196C77.0829 16.9013 75.945 18.6343 75.1275 20.5738C74.3018 22.5346 73.8828 24.6615 73.8828 26.8905C73.8828 29.094 74.3018 31.206 75.1275 33.1668C75.945 35.1063 77.0829 36.8414 78.5125 38.321C79.9339 39.7943 81.6181 40.9993 83.516 41.8977C85.4283 42.8047 87.5028 43.3241 89.6842 43.4476L105.155 43.4497V39.8433C105.155 38.8213 104.775 37.9016 104.056 37.1842C103.355 36.4837 102.462 36.1154 101.476 36.1154H90.5365C89.2323 36.1154 87.9917 35.8684 86.8558 35.383C85.7056 34.8912 84.6847 34.2142 83.8241 33.3669C82.9697 32.5281 82.2898 31.536 81.8009 30.4204C81.3162 29.3133 81.08 28.1594 81.08 26.8927C81.08 25.6004 81.3162 24.4316 81.8009 23.3223C82.2898 22.2068 82.9697 21.2168 83.8241 20.3758C84.6868 19.5285 85.7056 18.8493 86.8558 18.3597C87.9937 17.8743 89.2323 17.6295 90.5365 17.6295H101.476C102.462 17.6295 103.353 17.259 104.056 16.5586C104.775 15.8411 105.153 14.9214 105.153 13.8995V10.293H89.7766L89.68 10.2951L89.6842 10.293Z" fill="#002B45"/>
<path d="M171.19 39.8426C171.19 38.7014 170.707 37.7178 169.83 37.0706L169.826 37.0685C169.111 36.5426 168.331 36.2765 167.509 36.2765H151.919C153.858 34.3008 155.752 32.3869 157.576 30.5602C160.357 27.7733 163.003 25.1611 165.441 22.8L168.702 19.6406H161.682C160.464 19.6406 159.367 19.9472 158.402 20.5561L158.252 20.4347L157.122 21.5801C157.081 21.6227 156.954 21.7483 156.738 21.9591C156.485 22.2061 156.077 22.6106 155.495 23.1854C154.924 23.7474 154.117 24.5394 153.072 25.5549C152.016 26.5769 150.697 27.8713 149.109 29.4339C147.528 30.9902 145.579 32.9021 143.227 35.1992C142.615 35.8358 142.138 36.5682 141.81 37.3772C141.481 38.1926 141.312 39.0633 141.312 39.966V43.449H171.19V39.8426Z" fill="#002B45"/>
<path d="M144.989 17.3399H171.188V13.7334C171.188 12.5518 170.684 11.5704 169.77 10.97C169.086 10.5208 168.339 10.293 167.55 10.293H141.312V13.6099C141.312 14.634 141.693 15.5537 142.409 16.269C143.11 16.9695 144.003 17.3399 144.991 17.3399H144.989Z" fill="#002B45"/>
<path d="M196.337 39.7694V28.2048L214.067 10.2148H206.194C204.859 10.2148 203.643 10.7407 202.68 11.7371L187.797 26.8465L189.22 28.2303V43.378H192.899C193.819 43.378 194.657 43.014 195.323 42.3242C195.988 41.6365 196.339 40.753 196.339 39.7715L196.337 39.7694Z" fill="#002B45"/>
<path d="M191.169 20.0614L189.904 18.7691C188.143 16.9722 186.796 15.6033 185.861 14.6623C184.919 13.7149 184.235 13.0315 183.803 12.6121C183.337 12.1586 183.06 11.8967 182.961 11.8116C182.937 11.7903 182.912 11.7711 182.937 11.7988C182.464 11.2644 181.897 10.8599 181.256 10.5938C180.651 10.3426 180.014 10.2148 179.365 10.2148H171.461L183.588 22.3948C184.29 23.125 185.206 23.5104 186.231 23.5104C187.236 23.5104 188.148 23.1399 188.871 22.4395L191.167 20.0593L191.169 20.0614Z" fill="#002B45"/>
<path d="M252.197 10.293C250.757 10.293 249.568 10.9253 248.843 12.0728L235.863 34.5932L222.882 12.1345L222.847 12.0749C222.124 10.9274 220.935 10.2951 219.495 10.2951H215.695L215.738 43.2901H218.895C219.927 43.2901 220.838 42.9835 221.601 42.3768C222.486 41.6763 222.973 40.6757 222.973 39.5601V26.5499L231.671 41.2761C232.105 42.0574 232.748 42.6429 233.586 43.0176C234.298 43.3369 235.058 43.4987 235.843 43.4987C236.63 43.4987 237.388 43.3369 238.098 43.0176C238.938 42.6429 239.583 42.0574 240.017 41.2761L248.715 26.5499V39.5601C248.715 40.6778 249.202 41.6784 250.083 42.3768C250.849 42.9835 251.759 43.2901 252.792 43.2901H255.949L255.995 10.2951H252.195L252.197 10.293Z" fill="#002B45"/>
</svg>
